<svg xmlns="http://www.w3.org/2000/svg" viewBox="0 -1 466.104 466"><path fill="#ebebeb" d="M194.105 440.313c0 13.253 10.743 24 24 24h32c13.254 0 24-10.747 24-24v-48h-80zm0 0"/><path fill="#c9dfff" d="M156.406 305.566a144.435 144.435 0 0 1-19.71-15.261c-5.223 20.082-24.962 32.816-45.41 29.3-20.454-3.515-34.806-22.105-33.028-42.78 1.777-20.677 19.094-36.544 39.847-36.513 1.223 0 2.399.254 3.567.36a143.907 143.907 0 0 1-11.488-56.36H80l-5.527 26.293a8 8 0 0 1-12.368 4.946L40 200.312l-24 24 15.2 22.102a7.991 7.991 0 0 1 .84 7.508 7.984 7.984 0 0 1-5.782 4.86L0 264.311v32l26.29 5.528a8.014 8.014 0 0 1 5.784 4.86 8.002 8.002 0 0 1-.844 7.507L16 336.313l24 24 22.105-15.204a8.002 8.002 0 0 1 12.375 4.945L80 376.313h32l5.52-26.296a7.995 7.995 0 0 1 4.863-5.79 7.987 7.987 0 0 1 7.512.844L152 360.313l25.113-25.114a46.59 46.59 0 0 0-20.707-29.633zm0 0"/><path fill="#ffb41f" d="M378.105 184.313c-.007-69.043-49.02-128.368-116.82-141.399-67.8-13.031-135.312 23.89-160.914 88.012-25.601 64.12-2.094 137.39 56.035 174.64a45.875 45.875 0 0 1 21.7 38.418v32.329c0 13.253 10.742 24 24 24h64c13.253 0 24-10.747 24-24v-31.665a47.128 47.128 0 0 1 22.16-39.378 143.879 143.879 0 0 0 65.84-120.957zm0 0"/><path fill="#1cc8eb" d="M427.648 99.68l25.153-18.864L424 42.414l-25.152 18.863a15.998 15.998 0 0 1-17.746.961 16.005 16.005 0 0 1-7.688-16.023l4.441-31.113-47.52-6.79-4.44 31.11a15.988 15.988 0 0 1-11.864 13.242 15.993 15.993 0 0 1-16.773-5.898l-18.86-25.153L240 50.414l18.855 25.152c3.88 5.18 4.258 12.18.961 17.746s-9.62 8.598-16.023 7.688l-31.113-4.441-6.793 47.52 31.12 4.44a15.998 15.998 0 0 1 7.337 28.641l-25.145 18.863L248 234.422l25.145-18.856a16.004 16.004 0 0 1 17.753-.968 16.007 16.007 0 0 1 7.688 16.03l-4.48 31.106 47.519 6.793 4.48-31.12a15.993 15.993 0 0 1 11.868-13.235c6.27-1.61 12.89.723 16.77 5.898l18.866 25.145 38.399-28.8-18.871-25.145a15.997 15.997 0 1 1 15.063-25.438l31.113 4.445 6.792-47.52-31.113-4.444a16 16 0 1 1-7.344-28.633zM336 194.414c-30.93 0-56-25.07-56-56 0-30.926 25.07-56 56-56s56 25.074 56 56c0 30.93-25.07 56-56 56zm0 0"/><path fill="#9e9e9e" d="M194.105 416.313h80v16h-80zm0 0"/><path d="M226.105 352.313h16v24h-16zm16-16h-16c-.007-21.153-13.05-40.114-32.8-47.684-39.371-15.395-66.723-51.645-70.715-93.73-3.992-42.086 16.05-82.833 51.824-105.356l8.488 13.535c-30.672 19.3-47.863 54.23-44.441 90.313 3.418 36.078 26.863 67.156 60.617 80.351 25.93 9.918 43.047 34.809 43.027 62.57zm152-40h40a8 8 0 0 1 0 16h-40a8 8 0 0 1 0-16zm-16 48.003a7.998 7.998 0 0 1 11.266-1.027l35.711 29.754a7.998 7.998 0 0 1 1.027 11.266c-2.832 3.394-7.875 3.855-11.27 1.027l-35.71-29.754a7.998 7.998 0 0 1-1.024-11.266zm-32 15.997c4.418 0 8 3.578 8 8v40a8 8 0 0 1-16 0v-40c0-4.422 3.583-8 8-8zM7.93 134.602l48.476-12.11a7.997 7.997 0 0 1 9.7 5.82 7.995 7.995 0 0 1-5.825 9.696l-48.476 12.11a7.997 7.997 0 0 1-9.7-5.821 7.995 7.995 0 0 1 5.825-9.695zm10.172-86.286c2.566-3.593 7.562-4.421 11.156-1.855l42.976 30.7a7.996 7.996 0 1 1-9.293 13.01L19.965 59.474a7.996 7.996 0 0 1-1.863-11.157zM89.75.305a7.998 7.998 0 0 1 9.73 5.77l12.4 48.495a8 8 0 1 1-15.5 3.965L83.98 10.04A8.002 8.002 0 0 1 89.75.305zm0 0" fill="#fa0"/></svg>