<svg xmlns="http://www.w3.org/2000/svg" viewBox="0 0 512 512"><circle cx="256" cy="256" r="256" fill="#fc6f58"/><path fill="#f1543f" d="M510.581 283.026L369.78 142.222 239.051 287.318l-96.827 82.46 140.803 140.803C402.823 498.01 498.01 402.822 510.581 283.026z"/><path fill="#324a5e" d="M142.222 142.222h227.556v227.556H142.222z"/><path fill="#2b3b4e" d="M256 142.222h113.778v227.556H256z"/><path fill="#e6f3ff" d="M159.461 189.768h193.077V350.66H159.461z"/><path fill="#cfdbe6" d="M256 189.768h96.539V350.66H256z"/><path fill="#31bafd" d="M221.522 234.02H335.3v24.135H221.522z"/><path fill="#2b9ed8" d="M256 234.02h79.3v24.135H256z"/><path fill="#31bafd" d="M221.522 282.29H335.3v24.135H221.522z"/><path fill="#2b9ed8" d="M256 282.29h79.3v24.135H256z"/><path fill="#2b9ed8" d="M256 282.29h79.3v24.135H256z"/><path d="M176.7 234.02h25.285v24.135H176.7zm0 48.27h25.285v24.135H176.7z" fill="#31bafd"/><path fill="#f9b54c" d="M279.84 384.873l-24.636-24.635 144.678-144.679 24.636 24.636z"/><path fill="#f4a200" d="M411.076 226.751l13.445 13.445-144.678 144.678-13.445-13.445z"/><path fill="#fed8b2" d="M279.847 384.879l-38.819 11.945 14.184-36.579z"/><path fill="#e0b996" d="M241.031 396.816l-.003.008 38.819-11.945-13.44-13.439z"/></svg>