<svg xmlns="http://www.w3.org/2000/svg" viewBox="0 0 512 512"><path fill="#9543ff" d="M512 256c0 141.387-114.613 256-256 256S0 397.387 0 256 114.613 0 256 0s256 114.613 256 256zm0 0"/><path fill="#7c00ff" d="M512 256a256.72 256.72 0 0 0-6.809-58.852l-72.746-72.75-352.89 233.715 152.789 152.79c7.793.714 15.68 1.097 23.656 1.097 141.387 0 256-114.613 256-256zm0 0"/><path fill="#fff" d="M84.555 129.398h342.89v223.715H84.555zm0 0"/><path fill="#dce1eb" d="M255.605 129.398h171.84v223.715h-171.84zm0 0"/><path fill="#ff4545" d="M344.523 198.96l-22.644 13.075a107.96 107.96 0 0 0-24.734-14.305v-26.125h-82.29v26.125a107.96 107.96 0 0 0-24.734 14.305l-22.644-13.074-41.145 71.262 22.64 13.07a108.415 108.415 0 0 0 0 28.57l-22.64 13.07 15.855 27.462h74.766c-17.105-12.207-28.27-32.2-28.27-54.817 0-37.176 30.137-67.312 67.317-67.312 37.176 0 67.312 30.136 67.312 67.312 0 22.617-11.164 42.61-28.269 54.817h74.77l15.851-27.461-22.637-13.07a108.927 108.927 0 0 0 0-28.571l22.637-13.07zm0 0"/><path fill="#db0404" d="M363.973 297.578c0-4.844-.325-9.61-.946-14.285l22.641-13.07-41.145-71.262-22.644 13.074a107.96 107.96 0 0 0-24.734-14.305v-26.125h-41.54v58.668c.133 0 .262-.007.395-.007 37.176 0 67.312 30.136 67.312 67.312 0 22.613-11.164 42.61-28.265 54.817h74.765l15.852-27.461-22.637-13.07c.621-4.676.946-9.442.946-14.286zm0 0"/><path fill="#2d2d2d" d="M235.5 353.113h41V390h-41zm0 0"/><path fill="#1e1d1e" d="M255.605 353.113H276.5V390h-20.895zm0 0"/><path fill="#2d2d2d" d="M146.5 378.5h219v23h-219zm0 0"/><path fill="#1e1d1e" d="M255.605 378.5H365.5v23H255.605zm0 0"/><path fill="#2d2d2d" d="M432.445 358.113H79.555V124.398h352.89zm-342.89-10h332.89V134.398H89.555zm0 0"/><path fill="#1e1d1e" d="M432.445 124.398h-176.84v10h166.84v213.715h-166.84v10h176.84zm0 0"/></svg>