<svg xmlns="http://www.w3.org/2000/svg" viewBox="0 0 505 505"><circle cx="252.5" cy="252.5" r="252.5" fill="#ffd05b"/><path fill="#fff" d="M179.4 86.1v53.6h-53.5v279.2h253.2V86.1z"/><path fill="#e6e9ee" d="M179.4 86.1l-53.5 53.6h53.5z"/><path d="M252.5 337.5c0 2.7-.2 5.5-.6 8.1-3.6 22.6-22.1 40.3-45 42.7-1.8.2-3.6.3-5.5.3-28.3 0-51.2-22.9-51.2-51.1 0-23.5 15.9-43.4 37.6-49.3 4.3-1.2 8.9-1.8 13.6-1.8 13.6 0 26 5.3 35.1 14 9.9 9.2 16 22.4 16 37.1z" fill="#ff7058"/><path d="M236.5 300.3l-35.1 37.2-13.6-49.3c4.3-1.2 8.9-1.8 13.6-1.8 13.6-.1 26 5.2 35.1 13.9z" fill="#ffd05b"/><path d="M252.5 337.5c0 2.7-.2 5.5-.6 8.1l-50.5-8.1 35.1-37.1c9.9 9.2 16 22.4 16 37.1z" fill="#e6e9ee"/><path d="M251.9 345.6c-3.6 22.6-22.1 40.3-45 42.7l-5.5-50.8 50.5 8.1z" fill="#4cdbc4"/><path fill="#ffd05b" d="M268.3 299.9h15.4v13.6h-15.4z"/><path fill="#4cdbc4" d="M268.3 330.6h15.4v13.6h-15.4z"/><path fill="#ff7058" d="M268.3 361.4h15.4V375h-15.4z"/><path d="M294.5 299.9h61.9v13.6h-61.9zm0 30.7h61.9v13.6h-61.9zm0 30.8h61.9V375h-61.9z" fill="#e6e9ee"/><path fill="#2b3b4e" d="M323.56 216.496l12.586-12.586 35.425 35.425-12.586 12.587z"/><circle cx="300.4" cy="180.7" r="67.8" fill="#324a5e"/><circle cx="300.4" cy="180.7" r="51.3" fill="#e6e9ee"/><path d="M351.1 254.8l23.3-23.3c.7-.7 1.7-.7 2.4 0l43.1 43.1c.7.7.7 1.7 0 2.4l-23.3 23.3c-.7.7-1.7.7-2.4 0l-43.1-43.1c-.6-.7-.6-1.8 0-2.4z" fill="#ff7058"/><path fill="#e6e9ee" d="M385.955 291.97l-26.516-26.516 25.668-25.667 26.516 26.516z"/><path d="M150.2 170.3h15.9V232h-15.9zm24.6 21.6h15.9V232h-15.9zm24.6 17.5h15.9V232h-15.9z" fill="#54c0eb"/></svg>