<svg xmlns="http://www.w3.org/2000/svg" xmlns:xlink="http://www.w3.org/1999/xlink" width="0" height="0" style="position:absolute">
	
		<symbol id="001-project-management" viewBox="0 1 466.104 466">
			<path fill="#ebebeb" d="M194.105 440.313c0 13.253 10.743 24 24 24h32c13.254 0 24-10.747 24-24v-48h-80zm0 0"></path><path fill="#c9dfff" d="M156.406 305.566a144.435 144.435 0 0 1-19.71-15.261c-5.223 20.082-24.962 32.816-45.41 29.3-20.454-3.515-34.806-22.105-33.028-42.78 1.777-20.677 19.094-36.544 39.847-36.513 1.223 0 2.399.254 3.567.36a143.907 143.907 0 0 1-11.488-56.36H80l-5.527 26.293a8 8 0 0 1-12.368 4.946L40 200.312l-24 24 15.2 22.102a7.991 7.991 0 0 1 .84 7.508 7.984 7.984 0 0 1-5.782 4.86L0 264.311v32l26.29 5.528a8.014 8.014 0 0 1 5.784 4.86 8.002 8.002 0 0 1-.844 7.507L16 336.313l24 24 22.105-15.204a8.002 8.002 0 0 1 12.375 4.945L80 376.313h32l5.52-26.296a7.995 7.995 0 0 1 4.863-5.79 7.987 7.987 0 0 1 7.512.844L152 360.313l25.113-25.114a46.59 46.59 0 0 0-20.707-29.633zm0 0"></path><path fill="#ffb41f" d="M378.105 184.313c-.007-69.043-49.02-128.368-116.82-141.399-67.8-13.031-135.312 23.89-160.914 88.012-25.601 64.12-2.094 137.39 56.035 174.64a45.875 45.875 0 0 1 21.7 38.418v32.329c0 13.253 10.742 24 24 24h64c13.253 0 24-10.747 24-24v-31.665a47.128 47.128 0 0 1 22.16-39.378 143.879 143.879 0 0 0 65.84-120.957zm0 0"></path><path fill="#1cc8eb" d="M427.648 99.68l25.153-18.864L424 42.414l-25.152 18.863a15.998 15.998 0 0 1-17.746.961 16.005 16.005 0 0 1-7.688-16.023l4.441-31.113-47.52-6.79-4.44 31.11a15.988 15.988 0 0 1-11.864 13.242 15.993 15.993 0 0 1-16.773-5.898l-18.86-25.153L240 50.414l18.855 25.152c3.88 5.18 4.258 12.18.961 17.746s-9.62 8.598-16.023 7.688l-31.113-4.441-6.793 47.52 31.12 4.44a15.998 15.998 0 0 1 7.337 28.641l-25.145 18.863L248 234.422l25.145-18.856a16.004 16.004 0 0 1 17.753-.968 16.007 16.007 0 0 1 7.688 16.03l-4.48 31.106 47.519 6.793 4.48-31.12a15.993 15.993 0 0 1 11.868-13.235c6.27-1.61 12.89.723 16.77 5.898l18.866 25.145 38.399-28.8-18.871-25.145a15.997 15.997 0 1 1 15.063-25.438l31.113 4.445 6.792-47.52-31.113-4.444a16 16 0 1 1-7.344-28.633zM336 194.414c-30.93 0-56-25.07-56-56 0-30.926 25.07-56 56-56s56 25.074 56 56c0 30.93-25.07 56-56 56zm0 0"></path><path fill="#9e9e9e" d="M194.105 416.313h80v16h-80zm0 0"></path><path d="M226.105 352.313h16v24h-16zm16-16h-16c-.007-21.153-13.05-40.114-32.8-47.684-39.371-15.395-66.723-51.645-70.715-93.73-3.992-42.086 16.05-82.833 51.824-105.356l8.488 13.535c-30.672 19.3-47.863 54.23-44.441 90.313 3.418 36.078 26.863 67.156 60.617 80.351 25.93 9.918 43.047 34.809 43.027 62.57zm152-40h40a8 8 0 0 1 0 16h-40a8 8 0 0 1 0-16zm-16 48.003a7.998 7.998 0 0 1 11.266-1.027l35.711 29.754a7.998 7.998 0 0 1 1.027 11.266c-2.832 3.394-7.875 3.855-11.27 1.027l-35.71-29.754a7.998 7.998 0 0 1-1.024-11.266zm-32 15.997c4.418 0 8 3.578 8 8v40a8 8 0 0 1-16 0v-40c0-4.422 3.583-8 8-8zM7.93 134.602l48.476-12.11a7.997 7.997 0 0 1 9.7 5.82 7.995 7.995 0 0 1-5.825 9.696l-48.476 12.11a7.997 7.997 0 0 1-9.7-5.821 7.995 7.995 0 0 1 5.825-9.695zm10.172-86.286c2.566-3.593 7.562-4.421 11.156-1.855l42.976 30.7a7.996 7.996 0 1 1-9.293 13.01L19.965 59.474a7.996 7.996 0 0 1-1.863-11.157zM89.75.305a7.998 7.998 0 0 1 9.73 5.77l12.4 48.495a8 8 0 1 1-15.5 3.965L83.98 10.04A8.002 8.002 0 0 1 89.75.305zm0 0" fill="#fa0"></path>
		</symbol>
	
		<symbol id="001-responsive" viewBox="0 0 512 512">
			<circle cx="267" cy="256" r="245" fill="#69cdff"></circle><path fill="#445ea0" d="M185.72 358.53h78.71v41.23h-78.71z"></path><path fill="#2e4c89" d="M185.72 358.53h19.842v41.23H185.72z"></path><path d="M316.856 398.763H127.56c-2.806 0-5.101 2.296-5.101 5.102v25.571c0 2.806 2.296 5.102 5.101 5.102h189.296v-35.775z" fill="#293d7c"></path><path d="M142.301 429.435v-25.571c0-2.806 2.296-5.102 5.102-5.102H127.56c-2.806 0-5.101 2.296-5.101 5.102v25.571c0 2.806 2.296 5.102 5.101 5.102h19.842c-2.805 0-5.101-2.296-5.101-5.102z" fill="#1a2b63"></path><path d="M445.054 58.964H5.102C2.296 58.964 0 61.26 0 64.066V354.43a5.116 5.116 0 0 0 5.102 5.102h311.754V206.768c0-3.859 3.14-7 7-7h126.3V64.066c0-2.806-2.296-5.102-5.102-5.102z" fill="#293d7c"></path><path d="M22.396 308.514a3.069 3.069 0 0 0 3.061 3.06h291.399V206.768c0-3.859 3.14-7 7-7H427.76v-90.77H22.396v199.516z" fill="#fff"></path><path d="M42.239 308.514V108.998H22.396v199.516a3.069 3.069 0 0 0 3.061 3.06H45.3a3.07 3.07 0 0 1-3.061-3.06z" fill="#d9eafc"></path><circle cx="225.08" cy="335.46" r="13.774" fill="#445ea0"></circle><path d="M316.856 223.146h-53.424c-1.65 0-3 1.35-3 3v59.639c0 1.65 1.35 3 3 3h53.424v-65.639z" fill="#c3ddf4"></path><path d="M280.274 285.785v-59.639c0-1.65 1.35-3 3-3h-19.842c-1.65 0-3 1.35-3 3v59.639c0 1.65 1.35 3 3 3h19.842c-1.65 0-3-1.35-3-3z" fill="#aec1ed"></path><path d="M323.856 199.768h46.618v-65.382c0-2.75-2.25-5-5-5H84.682c-2.75 0-5 2.25-5 5v66.525c0 2.75 2.25 5 5 5h232.233c.424-3.456 3.373-6.143 6.941-6.143z" fill="#c3ddf4"></path><path d="M99.524 200.91v-66.525c0-2.75 2.25-5 5-5H84.682c-2.75 0-5 2.25-5 5v66.525c0 2.75 2.25 5 5 5h19.842c-2.75 0-5-2.25-5-5z" fill="#aec1ed"></path><path d="M424.699 84.983H25.457a3.07 3.07 0 0 0-3.061 3.062v21.953H427.76V88.045a3.07 3.07 0 0 0-3.061-3.062z" fill="#ffaf10"></path><path d="M45.3 84.983H25.457a3.07 3.07 0 0 0-3.061 3.062v21.953h19.842V88.045a3.071 3.071 0 0 1 3.062-3.062z" fill="#ff9518"></path><path d="M171.504 238.979h-84.17c-4.142 0-7.5-3.357-7.5-7.5s3.358-7.5 7.5-7.5h84.17c4.142 0 7.5 3.357 7.5 7.5s-3.358 7.5-7.5 7.5zm0 24.487h-84.17c-4.142 0-7.5-3.357-7.5-7.5s3.358-7.5 7.5-7.5h84.17a7.5 7.5 0 0 1 0 15zm0 24.487h-84.17c-4.142 0-7.5-3.357-7.5-7.5s3.358-7.5 7.5-7.5h84.17c4.142 0 7.5 3.357 7.5 7.5s-3.358 7.5-7.5 7.5zm66.056-48.974h-43.326c-4.142 0-7.5-3.357-7.5-7.5s3.358-7.5 7.5-7.5h43.326c4.142 0 7.5 3.357 7.5 7.5s-3.358 7.5-7.5 7.5zm0 24.487h-43.326c-4.142 0-7.5-3.357-7.5-7.5s3.358-7.5 7.5-7.5h43.326a7.5 7.5 0 0 1 0 15zm0 24.487h-43.326c-4.142 0-7.5-3.357-7.5-7.5s3.358-7.5 7.5-7.5h43.326c4.142 0 7.5 3.357 7.5 7.5s-3.358 7.5-7.5 7.5z" fill="#5dc1d8"></path><path d="M504 198.768c4.4 0 8 3.6 8 8v241.77c0 4.4-3.6 8-8 8H323.856c-4.4 0-8-3.6-8-8v-241.77c0-4.4 3.6-8 8-8H504z" fill="#445ea0"></path><path d="M337.567 425.125c-2.75 0-5-2.25-5-5V219.18c0-2.75 2.25-5 5-5H490.29c2.75 0 5 2.25 5 5v200.945c0 2.75-2.25 5-5 5H337.567z" fill="#fff"></path><path d="M352.409 420.125V219.18c0-2.75 2.25-5 5-5h-19.842c-2.75 0-5 2.25-5 5v200.945c0 2.75 2.25 5 5 5h19.842c-2.75 0-5-2.25-5-5z" fill="#d9eafc"></path><path d="M404.567 445.125c-2.75 0-5-2.25-5-5v-1.945c0-2.75 2.25-5 5-5h18.723c2.75 0 5 2.25 5 5v1.945c0 2.75-2.25 5-5 5h-18.723z" fill="#445ea0"></path><path d="M495.29 233.473V219.18c0-2.75-2.25-5-5-5H337.567c-2.75 0-5 2.25-5 5v14.293H495.29z" fill="#ffaf10"></path><path d="M357.409 214.18h-19.842c-2.75 0-5 2.25-5 5v14.293h19.842V219.18c0-2.75 2.25-5 5-5z" fill="#ff9518"></path><path d="M448.013 324.933h-68.169c-4.142 0-7.5-3.357-7.5-7.5s3.358-7.5 7.5-7.5h68.169a7.5 7.5 0 0 1 0 15zm0 23.127h-68.169a7.5 7.5 0 0 1 0-15h68.169a7.5 7.5 0 0 1 0 15zm0 23.125h-68.169a7.5 7.5 0 0 1 0-15h68.169a7.5 7.5 0 0 1 0 15z" fill="#5dc1d8"></path><path d="M479.756 292.257c0 2.75-2.25 5-5 5H353.101c-2.75 0-5-2.25-5-5v-41.244c0-2.75 2.25-5 5-5h121.655c2.75 0 5 2.25 5 5v41.244z" fill="#c3ddf4"></path><path d="M367.943 292.257v-41.244c0-2.75 2.25-5 5-5h-19.842c-2.75 0-5 2.25-5 5v41.244c0 2.75 2.25 5 5 5h19.842c-2.75 0-5-2.25-5-5z" fill="#aec1ed"></path><path d="M461.757 409.416c0 2.75-2.25 5-5 5H371.1c-2.75 0-5-2.25-5-5v-16.91c0-2.75 2.25-5 5-5h85.657c2.75 0 5 2.25 5 5v16.91z" fill="#c3ddf4"></path><path d="M385.942 409.416v-16.91c0-2.75 2.25-5 5-5H371.1c-2.75 0-5 2.25-5 5v16.91c0 2.75 2.25 5 5 5h19.842c-2.75 0-5-2.25-5-5z" fill="#aec1ed"></path>
		</symbol>
	
		<symbol id="001-web-site" viewBox="0 0 512 512">
			<circle cx="256" cy="256" r="256" fill="#fc6f58"></circle><path fill="#f1543f" d="M510.581 283.026L369.78 142.222 239.051 287.318l-96.827 82.46 140.803 140.803C402.823 498.01 498.01 402.822 510.581 283.026z"></path><path fill="#324a5e" d="M142.222 142.222h227.556v227.556H142.222z"></path><path fill="#2b3b4e" d="M256 142.222h113.778v227.556H256z"></path><path fill="#e6f3ff" d="M159.461 189.768h193.077V350.66H159.461z"></path><path fill="#cfdbe6" d="M256 189.768h96.539V350.66H256z"></path><path fill="#31bafd" d="M221.522 234.02H335.3v24.135H221.522z"></path><path fill="#2b9ed8" d="M256 234.02h79.3v24.135H256z"></path><path fill="#31bafd" d="M221.522 282.29H335.3v24.135H221.522z"></path><path fill="#2b9ed8" d="M256 282.29h79.3v24.135H256z"></path><path fill="#2b9ed8" d="M256 282.29h79.3v24.135H256z"></path><path d="M176.7 234.02h25.285v24.135H176.7zm0 48.27h25.285v24.135H176.7z" fill="#31bafd"></path><path fill="#f9b54c" d="M279.84 384.873l-24.636-24.635 144.678-144.679 24.636 24.636z"></path><path fill="#f4a200" d="M411.076 226.751l13.445 13.445-144.678 144.678-13.445-13.445z"></path><path fill="#fed8b2" d="M279.847 384.879l-38.819 11.945 14.184-36.579z"></path><path fill="#e0b996" d="M241.031 396.816l-.003.008 38.819-11.945-13.44-13.439z"></path>
		</symbol>
	
		<symbol id="002-database" viewBox="0 0 60 60">
			<path d="M24 35v-9.75h.034a2.244 2.244 0 0 0-.034.375c0-2.437 3.862-4.552 9.534-5.625H3.608A3.608 3.608 0 0 0 0 23.608v11.783A3.608 3.608 0 0 0 3.608 39H24v-4z" fill="#424a60"></path><path d="M24.034 53H24V39H3.608A3.608 3.608 0 0 0 0 42.608v11.783A3.608 3.608 0 0 0 3.608 58h28.718c-4.725-1.069-7.948-2.897-8.292-5zm30.358-33H3.608A3.609 3.609 0 0 1 0 16.392V4.608A3.609 3.609 0 0 1 3.608 1h50.783A3.609 3.609 0 0 1 58 4.608v11.783A3.609 3.609 0 0 1 54.392 20z" fill="#556080"></path><circle cx="9.5" cy="10.5" r="3.5" fill="#7383bf"></circle><circle cx="49" cy="9" r="1" fill="#7383bf"></circle><circle cx="45" cy="9" r="1" fill="#7383bf"></circle><circle cx="51" cy="12" r="1" fill="#7383bf"></circle><circle cx="47" cy="12" r="1" fill="#7383bf"></circle><circle cx="41" cy="9" r="1" fill="#7383bf"></circle><circle cx="43" cy="12" r="1" fill="#7383bf"></circle><circle cx="37" cy="9" r="1" fill="#7383bf"></circle><circle cx="39" cy="12" r="1" fill="#7383bf"></circle><circle cx="33" cy="9" r="1" fill="#7383bf"></circle><circle cx="35" cy="12" r="1" fill="#7383bf"></circle><circle cx="9.5" cy="29.5" r="3.5" fill="#7383bf"></circle><circle cx="9.5" cy="48.5" r="3.5" fill="#7383bf"></circle><path d="M42 48.75c-9.941 0-18-2.854-18-6.375V53h.034c.548 3.346 8.381 6 17.966 6s17.418-2.654 17.966-6H60V42.375c0 3.521-8.059 6.375-18 6.375zM24 42v.375c0-.126.013-.251.034-.375H24zm35.966 0c.021.124.034.249.034.375V42h-.034z" fill="#1a9172"></path><path d="M42 38c-9.941 0-18-2.854-18-6.375V42.75h.034c.548 3.346 8.381 6 17.966 6s17.418-2.654 17.966-6H60V31.625C60 35.146 51.941 38 42 38zm-18-6.75v.375c0-.126.013-.251.034-.375H24zm35.966 0c.021.124.034.249.034.375v-.375h-.034z" fill="#25ae88"></path><ellipse cx="42" cy="21.375" rx="18" ry="6.375" fill="#88c057"></ellipse><path d="M42 27.75c-9.941 0-18-2.854-18-6.375V32h.034c.548 3.346 8.381 6 17.966 6s17.418-2.654 17.966-6H60V21.375c0 3.521-8.059 6.375-18 6.375zM24 21v.375c0-.126.013-.251.034-.375H24zm35.966 0c.021.124.034.249.034.375V21h-.034z" fill="#61b872"></path>
		</symbol>
	
		<symbol id="002-settings" viewBox="0 0 512 512">
			<path fill="#9543ff" d="M512 256c0 141.387-114.613 256-256 256S0 397.387 0 256 114.613 0 256 0s256 114.613 256 256zm0 0"></path><path fill="#7c00ff" d="M512 256a256.72 256.72 0 0 0-6.809-58.852l-72.746-72.75-352.89 233.715 152.789 152.79c7.793.714 15.68 1.097 23.656 1.097 141.387 0 256-114.613 256-256zm0 0"></path><path fill="#fff" d="M84.555 129.398h342.89v223.715H84.555zm0 0"></path><path fill="#dce1eb" d="M255.605 129.398h171.84v223.715h-171.84zm0 0"></path><path fill="#ff4545" d="M344.523 198.96l-22.644 13.075a107.96 107.96 0 0 0-24.734-14.305v-26.125h-82.29v26.125a107.96 107.96 0 0 0-24.734 14.305l-22.644-13.074-41.145 71.262 22.64 13.07a108.415 108.415 0 0 0 0 28.57l-22.64 13.07 15.855 27.462h74.766c-17.105-12.207-28.27-32.2-28.27-54.817 0-37.176 30.137-67.312 67.317-67.312 37.176 0 67.312 30.136 67.312 67.312 0 22.617-11.164 42.61-28.269 54.817h74.77l15.851-27.461-22.637-13.07a108.927 108.927 0 0 0 0-28.571l22.637-13.07zm0 0"></path><path fill="#db0404" d="M363.973 297.578c0-4.844-.325-9.61-.946-14.285l22.641-13.07-41.145-71.262-22.644 13.074a107.96 107.96 0 0 0-24.734-14.305v-26.125h-41.54v58.668c.133 0 .262-.007.395-.007 37.176 0 67.312 30.136 67.312 67.312 0 22.613-11.164 42.61-28.265 54.817h74.765l15.852-27.461-22.637-13.07c.621-4.676.946-9.442.946-14.286zm0 0"></path><path fill="#2d2d2d" d="M235.5 353.113h41V390h-41zm0 0"></path><path fill="#1e1d1e" d="M255.605 353.113H276.5V390h-20.895zm0 0"></path><path fill="#2d2d2d" d="M146.5 378.5h219v23h-219zm0 0"></path><path fill="#1e1d1e" d="M255.605 378.5H365.5v23H255.605zm0 0"></path><path fill="#2d2d2d" d="M432.445 358.113H79.555V124.398h352.89zm-342.89-10h332.89V134.398H89.555zm0 0"></path><path fill="#1e1d1e" d="M432.445 124.398h-176.84v10h166.84v213.715h-166.84v10h176.84zm0 0"></path>
		</symbol>
	
		<symbol id="002-vk" viewBox="0 0 112.196 112.196">
			<circle cx="56.098" cy="56.098" r="56.098" fill="#4d76a1"></circle><path fill="#fff" fill-rule="evenodd" d="M53.979 80.702h4.403s1.33-.146 2.009-.878c.625-.672.605-1.934.605-1.934s-.086-5.908 2.656-6.778c2.703-.857 6.174 5.71 9.853 8.235 2.782 1.911 4.896 1.492 4.896 1.492l9.837-.137s5.146-.317 2.706-4.363c-.2-.331-1.421-2.993-7.314-8.463-6.168-5.725-5.342-4.799 2.088-14.702 4.525-6.031 6.334-9.713 5.769-11.29-.539-1.502-3.867-1.105-3.867-1.105l-11.076.069s-.821-.112-1.43.252c-.595.357-.978 1.189-.978 1.189s-1.753 4.667-4.091 8.636c-4.932 8.375-6.904 8.817-7.71 8.297-1.875-1.212-1.407-4.869-1.407-7.467 0-8.116 1.231-11.5-2.397-12.376-1.204-.291-2.09-.483-5.169-.514-3.952-.041-7.297.012-9.191.94-1.26.617-2.232 1.992-1.64 2.071.732.098 2.39.447 3.269 1.644 1.135 1.544 1.095 5.012 1.095 5.012s.652 9.554-1.523 10.741c-1.493.814-3.541-.848-7.938-8.446-2.253-3.892-3.954-8.194-3.954-8.194s-.328-.804-.913-1.234c-.71-.521-1.702-.687-1.702-.687l-10.525.069s-1.58.044-2.16.731c-.516.611-.041 1.875-.041 1.875s8.24 19.278 17.57 28.993c8.555 8.907 18.27 8.322 18.27 8.322z" clip-rule="evenodd"></path>
		</symbol>
	
		<symbol id="003-facebook" viewBox="0 0 291.319 291.319">
			<path fill="#3b5998" d="M145.659 0c80.45 0 145.66 65.219 145.66 145.66 0 80.45-65.21 145.659-145.66 145.659S0 226.109 0 145.66C0 65.219 65.21 0 145.659 0z"></path><path fill="#fff" d="M163.394 100.277h18.772v-27.73h-22.067v.1c-26.738.947-32.218 15.977-32.701 31.763h-.055v13.847h-18.207v27.156h18.207v72.793h27.439v-72.793h22.477l4.342-27.156h-26.81v-8.366c0-5.335 3.55-9.614 8.603-9.614z"></path>
		</symbol>
	
		<symbol id="003-settings" viewBox="0 0 504.123 504.123">
			<path d="M486.006 355.446l18.117-10.24c-1.182-6.695-2.757-13.391-5.12-20.086h-20.874l-11.422-20.086 10.634-18.117c-4.332-5.12-9.058-10.24-14.572-14.572l-18.117 10.24-20.086-11.815v-20.874c-.394 0-.788-.394-1.575-.394-5.908-1.969-12.209-3.938-18.511-5.12l-10.634 18.117h-23.237l-10.24-18.117c-6.695 1.182-13.391 2.757-20.086 5.12v20.874l-20.086 11.422-18.117-10.634c-5.12 4.332-10.24 9.058-14.572 14.572l10.24 18.117-11.815 20.086h-20.874c-2.363 6.695-4.332 12.997-5.514 19.692l18.117 10.634v23.237l-18.117 10.24c1.182 6.695 2.757 13.391 5.12 20.086h20.874l11.422 20.086-10.634 18.117c4.332 5.12 9.058 10.24 14.572 14.572l18.117-10.24 20.086 11.815v20.874c.394 0 .788.394 1.575.394 5.908 1.969 12.209 3.938 18.511 5.12l10.634-18.117h23.237l10.24 18.117c6.695-1.182 13.391-2.757 20.086-5.12v-20.874l20.086-11.422 18.117 10.634c5.12-4.332 10.24-9.058 14.572-14.572l-10.24-18.117 11.815-20.086h20.874c2.363-6.695 4.332-12.997 5.514-19.692l-18.117-10.634v-23.237zm-103.975 79.557c-37.809 0-68.923-30.72-68.923-68.529s30.72-68.923 68.923-68.923c37.809 0 68.923 30.72 68.923 68.529s-31.114 68.923-68.923 68.923z" fill="#415f6f"></path><path d="M274.905 240.049c0-7.483-.394-15.36-1.575-22.843l-22.449-4.726-8.271-24.418 15.36-17.329c-3.545-6.695-7.877-12.997-12.603-18.905l-22.055 7.483-19.298-16.935 4.726-22.843c-6.695-3.938-13.391-7.483-20.48-10.24l-14.966 17.329-25.206-5.12-7.483-22.055c-7.483 0-15.36.394-22.843 1.575l-4.726 22.449-24.418 8.271-17.329-15.36c-6.695 3.545-12.997 7.877-18.905 12.603l7.483 22.055-16.935 19.298-22.843-4.726c-3.938 6.695-7.483 13.391-10.24 20.48l17.329 15.36-5.12 25.206L0 233.748c0 7.483.394 15.36 1.575 22.843l22.843 4.726 8.271 24.418-15.36 17.329c3.545 6.695 7.877 12.997 12.603 18.905l22.055-7.483 19.298 16.935-5.12 22.843c6.695 3.938 13.391 7.483 20.48 10.24l15.36-17.329 25.206 5.12 7.483 22.055c7.483 0 15.36-.394 22.843-1.575l4.726-22.449 24.418-8.271 17.329 15.36c6.695-3.545 12.997-7.877 18.905-12.603l-7.483-22.055 16.935-19.298 22.843 4.726c3.938-6.695 7.483-13.391 10.24-20.48l-17.329-15.36 5.12-25.206 21.664-7.09zm-137.453 72.862c-42.142 0-76.406-34.265-76.406-76.406s34.265-76.406 76.406-76.406 76.406 34.265 76.406 76.406-34.264 76.406-76.406 76.406z" fill="#26a6d1"></path><path d="M456.862 125.046l16.542-6.695a136.746 136.746 0 0 0-2.363-17.723l-17.723-2.363-7.483-18.511 11.028-14.178a95.107 95.107 0 0 0-10.634-14.178l-16.542 6.695-15.754-12.209 2.363-17.723-1.182-.788c-5.12-2.363-10.24-4.726-15.36-6.302l-11.028 14.178-19.692-2.757-6.695-16.935c-5.908.394-11.815.788-17.723 1.969l-2.363 17.723-18.905 7.877-14.178-11.028a95.107 95.107 0 0 0-14.178 10.634l6.695 16.542-12.209 15.754-17.723-2.363c-2.757 5.12-5.12 10.634-7.089 16.542l14.178 11.028-2.757 19.692-16.542 6.695a136.746 136.746 0 0 0 2.363 17.723l17.723 2.363 7.483 18.511-11.028 14.178a95.107 95.107 0 0 0 10.634 14.178l16.542-6.695 15.754 12.209-2.363 17.723 1.182.788c5.12 2.363 10.24 4.726 15.36 6.302l11.028-14.178 19.692 2.757 6.695 16.542c5.908-.394 11.815-.788 17.723-2.363l2.363-17.723 18.511-7.483 14.178 11.028a95.107 95.107 0 0 0 14.178-10.634l-6.695-16.542 12.209-15.754 17.723 2.363c2.757-5.12 5.12-10.634 7.089-16.542l-14.178-11.028 3.151-19.299zm-90.191 58.289c-33.871 0-61.046-27.175-61.046-61.046s27.175-61.046 61.046-61.046 61.046 27.175 61.046 61.046-27.175 61.046-61.046 61.046z" fill="#638090"></path>
		</symbol>
	
		<symbol id="004-analytics" viewBox="0 0 505 505">
			<circle cx="252.5" cy="252.5" r="252.5" fill="#ffd05b"></circle><path fill="#fff" d="M179.4 86.1v53.6h-53.5v279.2h253.2V86.1z"></path><path fill="#e6e9ee" d="M179.4 86.1l-53.5 53.6h53.5z"></path><path d="M252.5 337.5c0 2.7-.2 5.5-.6 8.1-3.6 22.6-22.1 40.3-45 42.7-1.8.2-3.6.3-5.5.3-28.3 0-51.2-22.9-51.2-51.1 0-23.5 15.9-43.4 37.6-49.3 4.3-1.2 8.9-1.8 13.6-1.8 13.6 0 26 5.3 35.1 14 9.9 9.2 16 22.4 16 37.1z" fill="#ff7058"></path><path d="M236.5 300.3l-35.1 37.2-13.6-49.3c4.3-1.2 8.9-1.8 13.6-1.8 13.6-.1 26 5.2 35.1 13.9z" fill="#ffd05b"></path><path d="M252.5 337.5c0 2.7-.2 5.5-.6 8.1l-50.5-8.1 35.1-37.1c9.9 9.2 16 22.4 16 37.1z" fill="#e6e9ee"></path><path d="M251.9 345.6c-3.6 22.6-22.1 40.3-45 42.7l-5.5-50.8 50.5 8.1z" fill="#4cdbc4"></path><path fill="#ffd05b" d="M268.3 299.9h15.4v13.6h-15.4z"></path><path fill="#4cdbc4" d="M268.3 330.6h15.4v13.6h-15.4z"></path><path fill="#ff7058" d="M268.3 361.4h15.4V375h-15.4z"></path><path d="M294.5 299.9h61.9v13.6h-61.9zm0 30.7h61.9v13.6h-61.9zm0 30.8h61.9V375h-61.9z" fill="#e6e9ee"></path><path fill="#2b3b4e" d="M323.56 216.496l12.586-12.586 35.425 35.425-12.586 12.587z"></path><circle cx="300.4" cy="180.7" r="67.8" fill="#324a5e"></circle><circle cx="300.4" cy="180.7" r="51.3" fill="#e6e9ee"></circle><path d="M351.1 254.8l23.3-23.3c.7-.7 1.7-.7 2.4 0l43.1 43.1c.7.7.7 1.7 0 2.4l-23.3 23.3c-.7.7-1.7.7-2.4 0l-43.1-43.1c-.6-.7-.6-1.8 0-2.4z" fill="#ff7058"></path><path fill="#e6e9ee" d="M385.955 291.97l-26.516-26.516 25.668-25.667 26.516 26.516z"></path><path d="M150.2 170.3h15.9V232h-15.9zm24.6 21.6h15.9V232h-15.9zm24.6 17.5h15.9V232h-15.9z" fill="#54c0eb"></path>
		</symbol>
	
		<symbol id="004-instagram" viewBox="0 0 551.034 551.034">
			<linearGradient id="a" x1="275.517" x2="275.517" y1="4.57" y2="549.72" gradientTransform="matrix(1 0 0 -1 0 554)" gradientUnits="userSpaceOnUse"><stop offset="0" stop-color="#e09b3d"></stop><stop offset=".3" stop-color="#c74c4d"></stop><stop offset=".6" stop-color="#c21975"></stop><stop offset="1" stop-color="#7024c4"></stop></linearGradient><path fill="url(#a)" d="M386.878 0H164.156C73.64 0 0 73.64 0 164.156v222.722c0 90.516 73.64 164.156 164.156 164.156h222.722c90.516 0 164.156-73.64 164.156-164.156V164.156C551.033 73.64 477.393 0 386.878 0zM495.6 386.878c0 60.045-48.677 108.722-108.722 108.722H164.156c-60.045 0-108.722-48.677-108.722-108.722V164.156c0-60.046 48.677-108.722 108.722-108.722h222.722c60.045 0 108.722 48.676 108.722 108.722v222.722z"></path><linearGradient id="b" x1="275.517" x2="275.517" y1="4.57" y2="549.72" gradientTransform="matrix(1 0 0 -1 0 554)" gradientUnits="userSpaceOnUse"><stop offset="0" stop-color="#e09b3d"></stop><stop offset=".3" stop-color="#c74c4d"></stop><stop offset=".6" stop-color="#c21975"></stop><stop offset="1" stop-color="#7024c4"></stop></linearGradient><path fill="url(#b)" d="M275.517 133C196.933 133 133 196.933 133 275.516s63.933 142.517 142.517 142.517S418.034 354.1 418.034 275.516 354.101 133 275.517 133zm0 229.6c-48.095 0-87.083-38.988-87.083-87.083s38.989-87.083 87.083-87.083c48.095 0 87.083 38.988 87.083 87.083 0 48.094-38.989 87.083-87.083 87.083z"></path><linearGradient id="c" x1="418.31" x2="418.31" y1="4.57" y2="549.72" gradientTransform="matrix(1 0 0 -1 0 554)" gradientUnits="userSpaceOnUse"><stop offset="0" stop-color="#e09b3d"></stop><stop offset=".3" stop-color="#c74c4d"></stop><stop offset=".6" stop-color="#c21975"></stop><stop offset="1" stop-color="#7024c4"></stop></linearGradient><circle cx="418.31" cy="134.07" r="34.15" fill="url(#c)"></circle>
		</symbol>
	
		<symbol id="005-telegram" viewBox="0 0 512 512">
			<circle cx="255.997" cy="256" r="255.997" fill="#41b4e6"></circle><path fill="#0091c8" d="M512 256.003c0-6.238-.235-12.419-.673-18.546L405.228 131.36 106.772 248.759l114.191 114.192 1.498 5.392 1.939-1.955.008.008-1.947 1.947L348.778 494.66C444.298 457.5 512 364.663 512 256.003z"></path><path fill="#fff" d="M231.138 293.3l115.691 87.347 58.399-249.287-298.457 117.399 90.817 30.081 165.743-111.176z"></path><path fill="#d2d2d7" d="M197.588 278.84l24.873 89.504 8.677-75.044 132.193-125.636z"></path><path fill="#b9b9be" d="M268.738 321.688l-46.277 46.656 8.677-75.044z"></path>
		</symbol>
	
		<symbol id="arrow-back" viewBox="0 0 32.635 32.635">
			<g fill="#4b4b4c"><path d="M32.135 16.817H.5a.5.5 0 0 1 0-1h31.635a.5.5 0 0 1 0 1z"></path><path d="M13.037 29.353a.502.502 0 0 1-.354-.146L.146 16.669a.504.504 0 0 1 0-.708L12.684 3.429a.5.5 0 0 1 .707.707L1.207 16.315l12.184 12.184a.5.5 0 0 1-.354.854z"></path></g>
		</symbol>
	
		<symbol id="check-box" viewBox="0 0 512 512">
			<path fill="transparent" d="M16 16h480v480H16z"></path><path fill="#2ace18" d="M480 32v448H32V32h448m32-32H0v512h512V0z"></path>
		</symbol>
	
		<symbol id="checked" viewBox="0 0 507.2 507.2">
			<circle cx="253.6" cy="253.6" r="253.6" fill="#2ace18"></circle><path d="M188.8 368l130.4 130.4c108-28.8 188-127.2 188-244.8v-7.2L404.8 152l-216 216z" fill="#29af1a"></path><g fill="#fff"><path d="M260 310.4c11.2 11.2 11.2 30.4 0 41.6l-23.2 23.2c-11.2 11.2-30.4 11.2-41.6 0L93.6 272.8c-11.2-11.2-11.2-30.4 0-41.6l23.2-23.2c11.2-11.2 30.4-11.2 41.6 0L260 310.4z"></path><path d="M348.8 133.6c11.2-11.2 30.4-11.2 41.6 0l23.2 23.2c11.2 11.2 11.2 30.4 0 41.6l-176 175.2c-11.2 11.2-30.4 11.2-41.6 0l-23.2-23.2c-11.2-11.2-11.2-30.4 0-41.6l176-175.2z"></path></g>
		</symbol>
	
		<symbol id="cross-out" viewBox="0 0 224.512 224.512">
			<path fill="#4b4b4c" d="M224.507 6.997L217.521 0 112.256 105.258 6.998 0 .005 6.997l105.258 105.257L.005 217.512l6.993 7L112.256 119.24l105.265 105.272 6.986-7-105.258-105.258z"></path>
		</symbol>
	
		<symbol id="cross-out-white" viewBox="0 0 224.512 224.512">
			<path fill="#fff" d="M224.507 6.997L217.521 0 112.256 105.258 6.998 0 .005 6.997l105.258 105.257L.005 217.512l6.993 7L112.256 119.24l105.265 105.272 6.986-7-105.258-105.258z"></path>
		</symbol>
	
		<symbol id="instagram" viewBox="0 0 512 512">
			<path d="M114.759 512h61.103l-96.414-61.793-79.25-46.309C3.659 464.09 53.716 512 114.759 512z" fill="#fde494"></path><path d="M335.448 476.69l-69.006-17.655H114.759c-34.072 0-61.793-27.721-61.793-61.793v-33.876l-26.483-28.42L0 339.628v57.613c0 2.236.072 4.454.198 6.657L175.862 512h208.767l-49.181-35.31z" fill="#fea150"></path><path d="M441.655 440.14c-11.244 11.637-26.993 18.894-44.414 18.894H266.442L384.629 512h12.612c41.202 0 77.396-21.829 97.64-54.527l-27.022-16.094-26.204-1.239z" fill="#ff5d4a"></path><path d="M459.034 326.014v71.228c0 16.652-6.633 31.775-17.379 42.899l53.227 17.333C505.728 439.954 512 419.318 512 397.241v-62.805l-27.396-15.391-25.57 6.969z" fill="#e45261"></path><path fill="#ff4d95" d="M512 149.19l-28.203-6.716-24.763 14.826v168.714L512 334.436z"></path><path d="M512 114.759c0-57.633-42.708-105.473-98.136-113.55L344.43 30.101l-35.183 22.865h87.994c34.072 0 61.793 27.721 61.793 61.793V157.3L512 149.19v-34.431z" fill="#cb319c"></path><path d="M317.732 0L252.05 24.636l-51.805 28.33h109.002L413.864 1.208A115.22 115.22 0 0 0 397.241 0h-79.509z" fill="#8a3293"></path><path d="M256 406.069c18.358 0 35.954-3.32 52.226-9.38l-86.02-39.047-91.178-18.657c26.918 40.405 72.885 67.084 124.972 67.084z" fill="#ff5d4a"></path><path d="M329.153 305.358c-15.883 23.465-42.748 38.918-73.153 38.918-40.273 0-74.308-27.118-84.867-64.046l-23.682-14.801-40.847 4.538a149.134 149.134 0 0 0 24.425 69.017l177.198 57.705c38.303-14.264 69.237-43.757 85.458-81.068l-31.753-16.085-32.779 5.822z" fill="#e45261"></path><path d="M167.724 256c0-21.878 8.018-41.907 21.247-57.346l-37.658-5.268-38.25 16.892A149.478 149.478 0 0 0 105.931 256c0 4.712.244 9.365.671 13.966l64.53 10.262A87.974 87.974 0 0 1 167.724 256zm238.345 0c0-32.138-10.159-61.946-27.428-86.39l-37.397-5.308-38.418 16.917c24.873 15.631 41.45 43.298 41.45 74.781 0 18.27-5.58 35.261-15.123 49.358l64.531 10.262A149.162 149.162 0 0 0 406.069 256z" fill="#ff4d95"></path><path d="M256 167.724c17.194 0 33.242 4.959 46.826 13.495l75.815-11.609c-27.196-38.493-72.03-63.679-122.641-63.679-66.81 0-123.554 43.889-142.937 104.345l75.908-11.624c16.202-18.91 40.232-30.928 67.029-30.928zm141.241-17.655c19.47 0 35.31-15.84 35.31-35.31s-15.84-35.31-35.31-35.31c-19.47 0-35.31 15.84-35.31 35.31s15.84 35.31 35.31 35.31z" fill="#cb319c"></path><path fill="#ff5d4a" d="M52.966 313.564L27.47 300.847 0 296.316v43.313l52.966 23.737z"></path><path fill="#e45261" d="M0 253.014v43.302l52.966 17.248v-52.127l-27.52-9.894z"></path><path fill="#ff4d95" d="M52.966 219.479l-27.217-.246L0 227.59v25.424l52.966 8.423z"></path><path fill="#cb319c" d="M52.966 179.757l-28.055 2.846L0 205.962v21.628l52.966-8.111z"></path><path fill="#8a3293" d="M0 205.962l52.966-26.205v-60.395L21.9 122.333 0 143.241z"></path><path d="M205.059 0L84.206 46.481 1.387 96.928A115.22 115.22 0 0 0 0 114.759v28.482l52.966-23.878v-4.605c0-34.072 27.721-61.793 61.793-61.793h85.487L317.732 0H205.059z" fill="#523494"></path><path d="M114.759 0C57.545 0 9.978 42.088 1.387 96.928L205.059 0h-90.3z" fill="#2d2d87"></path>
		</symbol>
	
		<symbol id="symbols" viewBox="">
			
		</symbol>
	
		<symbol id="up-arrow" viewBox="0 0 495 495">
			<path fill="#2ace18" d="M247.5 0v140.792l131.619 131.191-28.238 28.33L247.5 197.269V495C384.19 495 495 384.19 495 247.5S384.19 0 247.5 0z"></path><path fill="#2aff00" d="M144.119 300.313l-28.238-28.33L247.5 140.792V0C110.81 0 0 110.81 0 247.5S110.81 495 247.5 495V197.269L144.119 300.313z"></path><path fill="#fff" d="M144.119 300.313L247.5 197.269l103.381 103.044 28.238-28.33L247.5 140.792 115.881 271.983z"></path>
		</symbol>
	
</svg>
