<svg xmlns="http://www.w3.org/2000/svg" xmlns:xlink="http://www.w3.org/1999/xlink" width="0" height="0" style="position:absolute">
	
		<symbol id="Path_2924" viewBox="0 0 31 23">
			<path fill="#deb880" d="M19.024 6.67a3.523 3.523 0 1 0-7.046 0 3.523 3.523 0 0 0 7.046 0zm3.148 0c0 5.09-4.237 6.045-6.23 10.936a.476.476 0 0 1-.883-.002c-1.798-4.41-5.42-5.62-6.113-9.548C8.264 4.188 10.942.4 14.852.03a6.672 6.672 0 0 1 7.32 6.64zm3.454 6.366l4.534 9.315c.185.379-.01.689-.43.689H1.282c-.422 0-.616-.31-.431-.69l4.534-9.314a.525.525 0 0 1 .43-.27h3.889c.12 0 .282.076.36.166.264.305.532.603.8.898.255.28.51.563.764.853H7.015a.525.525 0 0 0-.43.27l-3.004 6.17h23.85l-3.003-6.17a.525.525 0 0 0-.431-.27h-4.625c.254-.29.51-.573.764-.853.27-.296.54-.593.804-.898a.544.544 0 0 1 .36-.165h3.895a.52.52 0 0 1 .43.27z"></path>
		</symbol>
	
		<symbol id="Path_2925" viewBox="0 0 24 24">
			<path fill="#deb880" d="M23.464 18.879l-3.695-3.695c-.736-.733-1.954-.71-2.716.051l-1.861 1.861-.368-.204c-1.175-.652-2.784-1.544-4.477-3.238-1.697-1.698-2.59-3.31-3.244-4.485l-.2-.36 1.249-1.247.614-.614c.763-.763.784-1.982.05-2.717L5.12.536c-.734-.734-1.953-.712-2.716.051l-1.04 1.047.028.029c-.349.445-.64.959-.858 1.513a6.27 6.27 0 0 0-.382 1.535c-.487 4.044 1.36 7.74 6.376 12.756 6.933 6.933 12.52 6.409 12.762 6.383a6.242 6.242 0 0 0 1.539-.386 6 6 0 0 0 1.508-.855l.023.02 1.054-1.032c.762-.763.783-1.982.05-2.718z"></path>
		</symbol>
	
		<symbol id="arrow" viewBox="0 0 16 30">
			<path fill="#fff" d="M15.106 21.785a.608.608 0 0 0-.86 0L8.21 27.82V.608a.608.608 0 0 0-1.217 0V27.82L.959 21.785a.608.608 0 0 0-.86.86l7.073 7.074a.607.607 0 0 0 .86 0l7.074-7.074a.608.608 0 0 0 0-.86z"></path>
		</symbol>
	
		<symbol id="mouse" viewBox="0 0 18 25">
			<path fill="#fff" d="M15.848 16.04c0 3.954-3.168 7.17-7.062 7.17-3.893 0-7.061-3.229-7.061-7.198V8.978c0-3.969 3.168-7.198 7.061-7.198 3.894 0 7.062 3.23 7.062 7.198zM8.786.145C3.99.145.09 4.107.09 8.978v7.035c0 4.87 3.901 8.833 8.697 8.833 4.796 0 8.698-3.95 8.698-8.806V8.978c0-4.87-3.902-8.833-8.698-8.833z"></path><path fill="#fff" d="M8.786 6.906a.818.818 0 0 0-.818.818v2.863a.818.818 0 1 0 1.636 0V7.724a.818.818 0 0 0-.818-.818z"></path>
		</symbol>
	
</svg>
